<svg xmlns="http://www.w3.org/2000/svg" shape-rendering="geometricPrecision" text-rendering="geometricPrecision" image-rendering="optimizeQuality" fill-rule="evenodd" clip-rule="evenodd" viewBox="0 0 423 511.844"><path fill="#2394E0" d="M213.96 88.857c3.289.037 6.559.16 9.808.35l.002.003a201.6 201.6 0 00-2.467-.128c2.594 31.529 16.938 61.876 36.479 86.403 13.735 17.241 31.144 33.137 51.852 46.292 5.47 3.47 12.311 3.022 17.234-.594 20.503-12.655 38.023-29.538 51.787-49.269l.002-.001.235-.339.18-.26-.004.005C406.611 207.025 423 251.771 423 300.341c0 116.797-94.712 211.502-211.503 211.502C94.707 511.848 0 417.14 0 300.341 0 184.657 92.928 90.631 208.199 88.87c1.921-.03 3.841-.034 5.761-.013z"/><path fill="#A1E367" d="M40.475 409.608a197.972 197.972 0 01-27.248-62.741l37.251 17.963.19 11.113c0 4.084-6.972 12.773-9.181 16.074l-1.012 17.591zm328.444-224.962c18.345 25.696 30.741 55.93 35.158 88.698l-6.723-.721c-1.194 5.148-2.291 5.277-2.291 11.475 0 5.467 6.884 9.126 6.884 20.665 0 3.092-7.26 9.274-7.579 10.352l-10.783-12.648v16.071l-1.637-.062-2.906-29.657-6.021 1.898-7.164-22.062-23.597 24.629-.283 18.036-7.703 5.167-8.183-46.259-4.894 3.577-11.086-14.959-16.568.493-6.347-7.254-6.497 1.786-12.777-14.642-2.469 1.679 7.917 20.234 9.187.001v-4.593l4.589.002c3.311 9.151 6.888 3.731 6.888 9.188 0 19.094-23.585 33.133-39.033 36.727.825 3.453.506 6.895 4.587 6.895 8.652 0 4.352-1.515 13.782-2.296-.439 19.508-22.377 42.806-31.744 57.33l4.194 29.914c1.104 6.497-13.49 13.37-18.453 20.687l2.381 11.459-6.722 2.716c-1.178 11.773-12.606 24.834-25.427 24.834l-13.771-.002c0-16.119-11.484-39.126-11.484-50.518 0-9.673 4.588-10.974 4.588-22.957 0-11.071-11.474-26.947-11.474-29.845v-18.368h-9.186c-1.364-5.119-.531-6.886-6.885-6.886h-2.297c-10.03 0-8.335 4.59-18.367 4.59h-9.189c-8.281 0-22.957-26.579-22.957-29.85v-27.55c0-11.891 10.881-24.833 18.369-29.854v-11.474l10.333-10.506 5.74-.977c12.319 0 10.857-6.885 18.369-6.885l20.667.002v16.071l22.721 9.702 2.141-9.804c10.297 2.413 12.974 6.994 25.659 6.994h4.588c8.713 0 9.182-11.56 9.182-20.661l-18.394 1.818-8.001-17.433-7.956 2.117c1.429 6.237 2.211 3.645 2.211 8.906 0 3.097-2.552 3.442-4.596 4.592l-7.956-20.19-17.104-12.217-2.272 2.232 14.566 15.326c-1.935 5.496-2.163 21.373-10.193 10.253l7.511-3.614-18.721-19.618-11.215 4.386-11.07 10.602c-1.157 8.54-3.485 12.837-12.42 12.837-5.949 0-2.357-1.54-11.484-2.296v-22.957h20.662l-6.695-15.291-2.483 1.514v-4.596l33.552-15.469c-.633-4.817-1.404-2.234-1.404-7.488 0-.314 2.254-4.551 2.296-4.599l8.678 5.388-2.074-9.883-13.39 2.754-2.484-12.014c10.616-5.591 33.976-25.266 41.405-25.266l6.892-.002c4.995 0 15.76 3.394 23.014 6.916.344 1.33.708 2.656 1.091 3.977l-12.686-1.286 13.67 11.261.997-3.651c6.526 19.331 16.935 37.491 29.489 53.248 13.735 17.241 31.144 33.137 51.852 46.292 5.47 3.47 12.311 3.022 17.234-.594 15.941-9.839 30.079-22.235 42.051-36.537z"/><path fill="#EF4136" d="M353.188 176.548c-9.285 10.181-20.099 19.302-32.242 26.678a4.549 4.549 0 01-5.182.166c-17.941-11.412-33.007-25.117-44.851-40.018-16.347-20.498-26.628-43.224-30.15-65.116-3.589-22.192-.232-43.556 10.815-60.913 4.351-6.862 9.916-13.107 16.693-18.507C283.853 6.43 301.644-.131 319.384.002c17.077.132 33.938 6.495 48.505 19.8 5.117 4.652 9.42 9.985 12.941 15.764 11.877 19.568 14.434 44.518 9.219 69.801-5.149 24.983-17.939 50.366-36.861 71.129v.052zM315.996 39.47c21.062 0 38.123 17.076 38.123 38.123 0 21.064-17.077 38.124-38.123 38.124-21.064 0-38.123-17.06-38.123-38.124-.016-21.063 17.059-38.123 38.123-38.123z"/></svg>