<!-- icon666.com - MILLIONS vector ICONS FREE --><svg id="Capa_1" enable-background="new 0 0 497 497" viewBox="0 0 497 497" xmlns="http://www.w3.org/2000/svg"><g><path d="m486.309 472.309-475.149-.681c-5.523 0-10-4.477-10-10l-.086-427.234c0-5.523 4.477-10 10-10l3.926-.894h472c5.523 0 10 4.477 10 10v425l-.691 3.809c0 5.522-4.478 10-10 10z" fill="#857e87"></path><g fill="#00c3ff"><circle cx="30" cy="441.5" r="7.5"></circle><circle cx="56" cy="441.5" r="7.5"></circle><circle cx="82" cy="441.5" r="7.5"></circle></g><path d="m497 458.5v5c0 5.523-4.477 10-10 10h-477c-5.523 0-10-4.477-10-10v-430c0-5.523 4.477-10 10-10h5v429c0 3.314 2.686 6 6 6z" fill="#6f6571"></path><path d="m341.223 174.798-304.313-2.107c-2.761 0-5-2.239-5-5l-.963-106.574c0-2.761 2.239-5 5-5l6.053-.617h300c2.761 0 5 2.239 5 5v47.5l-2.138 7.5 2.138 7.5v40.5l-.777 6.298c0 2.761-2.238 5-5 5z" fill="#6f6571"></path><path d="m347 163.5v7c0 2.761-2.239 5-5 5h-307c-2.761 0-5-2.239-5-5v-47.5l2.223-6.819-2.223-8.181v-47.5c0-2.761 2.239-5 5-5h7v105c0 1.657 1.343 3 3 3z" fill="#635a63"></path><g><path d="m116.9 123v8.41c0 12.87-10.47 23.34-23.34 23.34-12.88 0-23.35-10.47-23.35-23.34 0-4.64-3.77-8.41-8.4-8.41l12.711-2.904 9.119 2.904c1.02 2.61 1.57 5.45 1.57 8.41 0 4.6 3.74 8.34 8.35 8.34 4.6 0 8.34-3.74 8.34-8.34v-8.41l7.5-3.585z" fill="#ff6e96"></path><path d="m182.24 123c-1.21 1.45-1.94 3.31-1.94 5.34v3.07c0 12.87-10.47 23.34-23.34 23.34-12.89 0-23.36-10.47-23.36-23.34v-8.41l7.5-2.904 7.5 2.904v8.41c0 4.6 3.74 8.34 8.34 8.34 4.62 0 8.36-3.74 8.36-8.34v-3.07c0-1.84.21-3.63.63-5.34l6.464-2.904z" fill="#ff6e96"></path><path d="m243.7 123v8.41c0 12.87-10.47 23.34-23.34 23.34-12.89 0-23.36-10.47-23.36-23.34v-3.07c0-2.03-.73-3.89-1.93-5.34l6.775-2.904 9.525 2.904c.42 1.71.63 3.5.63 5.34v3.07c0 4.6 3.74 8.34 8.34 8.34 4.62 0 8.36-3.74 8.36-8.34v-8.41l7.5-2.138z" fill="#ff6e96"></path><path d="m315.51 123c-4.64 0-8.41 3.77-8.41 8.41 0 12.87-10.47 23.34-23.34 23.34-12.89 0-23.36-10.47-23.36-23.34v-8.41l7.5-2.138 7.5 2.138v8.41c0 4.6 3.74 8.34 8.34 8.34 4.62 0 8.36-3.74 8.36-8.34 0-2.96.55-5.8 1.57-8.41l11.617-2.138z" fill="#ff6e96"></path><g fill="#ffdc64"><path d="m83.64 123h-53.64l2.734-7.5-2.734-7.5h31.81c9.94 0 18.45 6.23 21.83 15z"></path><path d="m116.9 105v18h-15v-18l7.5-3.287z"></path><path d="m148.6 105v18h-15v-18l7.5-2.606z"></path><path d="m211.37 123h-16.3c-1.54-1.83-3.84-3-6.41-3-2.58 0-4.89 1.17-6.42 3h-16.31c2.41-10.3 11.68-18 22.71-18 11.05 0 20.32 7.7 22.73 18z"></path><path d="m243.7 105v18h-15v-18l7.5-3.287z"></path><path d="m275.4 105v18h-15v-18l7.5-3.287z"></path><path d="m347 108v15h-53.33c3.38-8.77 11.89-15 21.84-15z"></path></g><path d="m275.4 97.34v7.66h-15v-7.66c0-4.6-3.74-8.34-8.34-8.34-4.62 0-8.36 3.74-8.36 8.34v7.66h-15v-7.66c0-12.87 10.47-23.34 23.34-23.34 12.89 0 23.36 10.47 23.36 23.34z" fill="#c8ff82"></path><path d="m148.6 97.34v7.66h-15v-7.66c0-4.6-3.74-8.34-8.34-8.34-4.62 0-8.36 3.74-8.36 8.34v7.66h-15v-7.66c0-12.87 10.47-23.34 23.34-23.34 12.89 0 23.36 10.47 23.36 23.34z" fill="#c8ff82"></path></g><path d="m30 108h12v15h-12z" fill="#ffc850"></path><g><g><g><path d="m347 298.88v48.24c0 1.38-.56 2.64-1.46 3.54l-31.125-25.543-24.195-29.777c.9-.9 2.15-1.46 3.53-1.46h48.25c2.76 0 5 2.23 5 5z" fill="#00c3ff"></path><path d="m345.54 350.66c-.91.9-2.16 1.46-3.54 1.46h-48.25c-2.76 0-5-2.23-5-5v-48.24c0-1.38.56-2.64 1.47-3.54z" fill="#00aaf0"></path></g><g><path d="m170.249 210.38v48.24c0 1.38-.56 2.64-1.46 3.54l-31.125-25.543-24.195-29.777c.9-.9 2.15-1.46 3.53-1.46h48.25c2.76 0 5 2.23 5 5z" fill="#00c3ff"></path><path d="m168.789 262.16c-.91.9-2.16 1.46-3.54 1.46h-48.25c-2.76 0-5-2.23-5-5v-48.24c0-1.38.56-2.64 1.47-3.54z" fill="#00aaf0"></path></g><g><path d="m258.625 210.38v48.24c0 1.38-.56 2.64-1.46 3.54l-31.125-25.543-24.195-29.777c.9-.9 2.15-1.46 3.53-1.46h48.25c2.76 0 5 2.23 5 5z" fill="#c8ff82"></path><path d="m257.165 262.16c-.91.9-2.16 1.46-3.54 1.46h-48.25c-2.76 0-5-2.23-5-5v-48.24c0-1.38.56-2.64 1.47-3.54z" fill="#b4e66e"></path></g><g><g><path d="m170.25 298.88v48.24c0 1.38-.56 2.64-1.46 3.54l-31.125-25.543-24.195-29.777c.9-.9 2.15-1.46 3.53-1.46h48.25c2.76 0 5 2.23 5 5z" fill="#ff6e96"></path><path d="m168.79 350.66c-.91.9-2.16 1.46-3.54 1.46h-48.25c-2.76 0-5-2.23-5-5v-48.24c0-1.38.56-2.64 1.47-3.54z" fill="#ff507d"></path></g><g><path d="m258.626 298.88v48.24c0 1.38-.56 2.64-1.46 3.54l-31.125-25.543-24.195-29.777c.9-.9 2.15-1.46 3.53-1.46h48.25c2.76 0 5 2.23 5 5z" fill="#ffdc64"></path><path d="m257.166 350.66c-.91.9-2.16 1.46-3.54 1.46h-48.25c-2.76 0-5-2.23-5-5v-48.24c0-1.38.56-2.64 1.47-3.54z" fill="#ffc850"></path></g></g><g><path d="m347.001 210.38v48.24c0 1.38-.56 2.64-1.46 3.54l-31.125-25.543-24.195-29.777c.9-.9 2.15-1.46 3.53-1.46h48.25c2.76 0 5 2.23 5 5z" fill="#ad7fdd"></path><path d="m345.541 262.16c-.91.9-2.16 1.46-3.54 1.46h-48.25c-2.76 0-5-2.23-5-5v-48.24c0-1.38.56-2.64 1.47-3.54z" fill="#9d66d6"></path></g><g><g><path d="m170.249 387.256v48.24c0 1.38-.56 2.64-1.46 3.54l-31.125-25.543-24.195-29.777c.9-.9 2.15-1.46 3.53-1.46h48.25c2.76 0 5 2.23 5 5z" fill="#ad7fdd"></path><path d="m168.789 439.036c-.91.9-2.16 1.46-3.54 1.46h-48.25c-2.76 0-5-2.23-5-5v-48.24c0-1.38.56-2.64 1.47-3.54z" fill="#9d66d6"></path></g><g><path d="m258.625 387.256v48.24c0 1.38-.56 2.64-1.46 3.54l-31.125-25.543-24.195-29.777c.9-.9 2.15-1.46 3.53-1.46h48.25c2.76 0 5 2.23 5 5z" fill="#ff6e96"></path><path d="m257.165 439.036c-.91.9-2.16 1.46-3.54 1.46h-48.25c-2.76 0-5-2.23-5-5v-48.24c0-1.38.56-2.64 1.47-3.54z" fill="#ff507d"></path></g><g><path d="m347.001 387.256v48.24c0 1.38-.56 2.64-1.46 3.54l-31.125-25.543-24.195-29.777c.9-.9 2.15-1.46 3.53-1.46h48.25c2.76 0 5 2.23 5 5z" fill="#c8ff82"></path><path d="m345.541 439.036c-.91.9-2.16 1.46-3.54 1.46h-48.25c-2.76 0-5-2.23-5-5v-48.24c0-1.38.56-2.64 1.47-3.54z" fill="#b4e66e"></path></g></g></g></g><g fill="#6f6571"><circle cx="392" cy="70.5" r="15"></circle><circle cx="392" cy="130.5" r="15"></circle></g><g><g fill="#6f6571"><circle cx="437" cy="85.5" r="7.5"></circle><circle cx="467" cy="85.5" r="7.5"></circle><circle cx="437" cy="145.5" r="7.5"></circle><circle cx="467" cy="145.5" r="7.5"></circle></g><g><path d="m467 63h-30c-4.142 0-7.5-3.358-7.5-7.5s3.358-7.5 7.5-7.5h30c4.142 0 7.5 3.358 7.5 7.5s-3.358 7.5-7.5 7.5z" fill="#6f6571"></path></g><g><path d="m467 123h-30c-4.142 0-7.5-3.358-7.5-7.5s3.358-7.5 7.5-7.5h30c4.142 0 7.5 3.358 7.5 7.5s-3.358 7.5-7.5 7.5z" fill="#6f6571"></path></g><path d="m467 183h-90c-4.142 0-7.5-3.358-7.5-7.5s3.358-7.5 7.5-7.5h90c4.142 0 7.5 3.358 7.5 7.5s-3.358 7.5-7.5 7.5z" fill="#6f6571"></path></g><circle cx="392" cy="250.5" fill="#6f6571" r="15"></circle><g fill="#f9f8f9"><path d="m403 440.5h-22c-2.209 0-4-1.791-4-4v-22c0-2.209 1.791-4 4-4h22c2.209 0 4 1.791 4 4v22c0 2.209-1.791 4-4 4z"></path><path d="m463 440.5h-22c-2.209 0-4-1.791-4-4v-22c0-2.209 1.791-4 4-4h22c2.209 0 4 1.791 4 4v22c0 2.209-1.791 4-4 4z"></path><path d="m463 265.5h-22c-2.209 0-4-1.791-4-4v-22c0-2.209 1.791-4 4-4h22c2.209 0 4 1.791 4 4v22c0 2.209-1.791 4-4 4z"></path></g><circle cx="422" cy="338" fill="#635a63" r="45"></circle><circle cx="422" cy="338" fill="#6f6571" r="31"></circle><g><path d="m422 339.851c-4.142 0-7.5-3.358-7.5-7.5l1.532-18.926-1.532-5.506v-13.419c0-4.142 3.358-7.5 7.5-7.5s7.5 3.358 7.5 7.5v13.42l-1.723 5.506 1.723 18.926c0 4.141-3.358 7.499-7.5 7.499z" fill="#6f6571"></path></g><g><path d="m429.5 307.92v24.43c0 4.14-3.36 7.5-7.5 7.5s-7.5-3.36-7.5-7.5v-24.43c2.4-.6 4.92-.92 7.5-.92s5.1.32 7.5.92z" fill="#635a63"></path></g><g><path d="m407 213h-30c-4.142 0-7.5-3.358-7.5-7.5s3.358-7.5 7.5-7.5h30c4.142 0 7.5 3.358 7.5 7.5s-3.358 7.5-7.5 7.5z" fill="#6f6571"></path></g><g><g><path d="m82 269.5v19c0 1.6-.75 3.02-1.92 3.93l-27.431-10.696-20.739-16.164c.85-.67 1.92-1.07 3.09-1.07h42c2.76 0 5 2.24 5 5z" fill="#6f6571"></path><path d="m80.08 292.43c-.85.67-1.92 1.07-3.08 1.07h-42c-2.76 0-5-2.24-5-5v-19c0-1.59.75-3.01 1.91-3.93z" fill="#635a63"></path></g><g><path d="m82 328.5v19c0 1.6-.75 3.02-1.92 3.93l-27.431-10.696-20.739-16.164c.85-.67 1.92-1.07 3.09-1.07h42c2.76 0 5 2.24 5 5z" fill="#6f6571"></path><path d="m80.08 351.43c-.85.67-1.92 1.07-3.08 1.07h-42c-2.76 0-5-2.24-5-5v-19c0-1.59.75-3.01 1.91-3.93z" fill="#635a63"></path></g><g><path d="m82 387.5v19c0 1.6-.75 3.02-1.92 3.93l-27.431-10.696-20.739-16.164c.85-.67 1.92-1.07 3.09-1.07h42c2.76 0 5 2.24 5 5z" fill="#6f6571"></path><path d="m80.08 410.43c-.85.67-1.92 1.07-3.08 1.07h-42c-2.76 0-5-2.24-5-5v-19c0-1.59.75-3.01 1.91-3.93z" fill="#635a63"></path></g><g><path d="m82 210.5v19c0 1.6-.75 3.02-1.92 3.93l-27.431-10.696-20.739-16.164c.85-.67 1.92-1.07 3.09-1.07h42c2.76 0 5 2.24 5 5z" fill="#6f6571"></path><path d="m80.08 233.43c-.85.67-1.92 1.07-3.08 1.07h-42c-2.76 0-5-2.24-5-5v-19c0-1.59.75-3.01 1.91-3.93z" fill="#635a63"></path></g></g><circle cx="422" cy="338" fill="#635a63" r="20"></circle></g></svg>